<?xml version="1.0" encoding="UTF-8"?>
<!DOCTYPE svg PUBLIC "-//W3C//DTD SVG 1.1//EN" "http://www.w3.org/Graphics/SVG/1.1/DTD/svg11.dtd">
<svg xmlns="http://www.w3.org/2000/svg" version="1.1" width="2000px" height="1020px" style="shape-rendering:geometricPrecision; text-rendering:geometricPrecision; image-rendering:optimizeQuality; fill-rule:evenodd; clip-rule:evenodd" xmlns:xlink="http://www.w3.org/1999/xlink">
<g><path style="opacity:0.992" fill="#e11c37" d="M 920.5,-0.5 C 921.5,-0.5 922.5,-0.5 923.5,-0.5C 913.126,11.5792 911.959,24.5792 920,38.5C 925.356,47.8763 931.689,56.543 939,64.5C 959.727,84.5588 979.727,105.225 999,126.5C 1016.64,147.773 1032.31,170.44 1046,194.5C 1068.05,238.401 1070.39,283.401 1053,329.5C 1042.55,354.41 1029.05,377.41 1012.5,398.5C 948.836,399.667 885.169,399.833 821.5,399C 788.3,371.391 775.8,336.224 784,293.5C 789.579,272.343 797.912,252.343 809,233.5C 821.839,212.494 834.172,191.16 846,169.5C 856.35,145.553 849.85,127.72 826.5,116C 854.704,112.838 877.87,122.005 896,143.5C 907.609,161.377 909.609,180.377 902,200.5C 896.674,211.827 890.341,222.494 883,232.5C 870.617,247.882 858.617,263.549 847,279.5C 837.404,294.41 834.737,310.41 839,327.5C 842.478,335.97 847.811,342.97 855,348.5C 847.433,325.003 851.433,303.669 867,284.5C 884.969,268.199 902.635,251.533 920,234.5C 942.263,206.718 943.929,177.718 925,147.5C 912.996,130.167 901.996,112.167 892,93.5C 877.46,54.6347 886.96,23.3014 920.5,-0.5 Z"/></g>
<g><path style="opacity:1" fill="#edb028" d="M 874.5,341.5 C 873.833,346.833 873.167,352.167 872.5,357.5C 865.096,336.532 867.596,316.865 880,298.5C 890.959,283.871 904.126,271.704 919.5,262C 931.624,251.225 941.457,238.725 949,224.5C 952.666,215.507 954.666,206.174 955,196.5C 966.064,217.363 964.73,237.363 951,256.5C 936.891,271.286 921.058,283.786 903.5,294C 887.574,306.019 877.908,321.852 874.5,341.5 Z"/></g>
<g><path style="opacity:0.993" fill="#034e8b" d="M -0.5,405.5 C -0.5,403.833 -0.5,402.167 -0.5,400.5C 8.60942,362.385 17.2761,324.052 25.5,285.5C 100.845,285.065 176.178,285.565 251.5,287C 356.337,297.504 413.17,355.338 422,460.5C 429.442,547.151 406.442,624.484 353,692.5C 310.829,747.526 255.329,781.026 186.5,793C 173.249,795.323 159.915,796.99 146.5,798C 104.838,797.791 63.1713,797.625 21.5,797.5C 21.5,670.833 21.5,544.167 21.5,417.5C 63.8333,417.5 106.167,417.5 148.5,417.5C 148.5,504.833 148.5,592.167 148.5,679.5C 177.889,679.13 203.555,669.296 225.5,650C 282.369,597.388 302.202,533.221 285,457.5C 275.441,429.601 256.274,412.768 227.5,407C 151.507,405.659 75.5068,405.159 -0.5,405.5 Z"/></g>
<g><path style="opacity:0.996" fill="#e11b38" d="M 1230.5,285.5 C 1345.84,285.167 1461.17,285.5 1576.5,286.5C 1566.69,326.063 1557.36,365.73 1548.5,405.5C 1484.83,405.5 1421.17,405.5 1357.5,405.5C 1357.5,429.833 1357.5,454.167 1357.5,478.5C 1414.83,478.5 1472.17,478.5 1529.5,478.5C 1520.71,517.806 1512.04,557.14 1503.5,596.5C 1454.83,596.5 1406.17,596.5 1357.5,596.5C 1357.5,624.5 1357.5,652.5 1357.5,680.5C 1425.5,680.167 1493.5,680.5 1561.5,681.5C 1552.4,720.413 1543.06,759.246 1533.5,798C 1432.5,798.5 1331.5,798.667 1230.5,798.5C 1230.5,627.5 1230.5,456.5 1230.5,285.5 Z"/></g>
<g><path style="opacity:0.997" fill="#e11c37" d="M 1999.5,466.5 C 1999.5,483.833 1999.5,501.167 1999.5,518.5C 1990.33,603.34 1954.66,674.84 1892.5,733C 1853.48,766 1808.48,786.333 1757.5,794C 1739.62,796.974 1721.62,798.474 1703.5,798.5C 1668.17,797.655 1632.84,797.322 1597.5,797.5C 1597.5,670.833 1597.5,544.167 1597.5,417.5C 1639.83,417.5 1682.17,417.5 1724.5,417.5C 1724.5,504.833 1724.5,592.167 1724.5,679.5C 1746.51,679.441 1766.84,673.608 1785.5,662C 1827.6,632.358 1854.1,592.191 1865,541.5C 1869.26,517.807 1869.26,494.14 1865,470.5C 1859.58,443.094 1844.41,423.261 1819.5,411C 1814.26,409.255 1808.93,407.921 1803.5,407C 1727.51,405.655 1651.51,405.155 1575.5,405.5C 1584.18,365.573 1593.18,325.74 1602.5,286C 1670.83,285.333 1739.17,285.333 1807.5,286C 1926.09,288.434 1990.09,348.6 1999.5,466.5 Z"/></g>
<g><path style="opacity:1" fill="#e76131" d="M 874.5,341.5 C 874.666,347.842 874.5,354.175 874,360.5C 873.487,359.473 872.987,358.473 872.5,357.5C 873.167,352.167 873.833,346.833 874.5,341.5 Z"/></g>
<g><path style="opacity:0.993" fill="#034e8b" d="M 591.5,410.5 C 611.85,410.326 632.183,410.826 652.5,412C 682.372,414.291 709.706,423.624 734.5,440C 749.18,451.186 759.013,465.686 764,483.5C 772.175,522.12 766.175,558.453 746,592.5C 724.546,626.954 696.713,655.121 662.5,677C 656.293,680.603 649.96,683.936 643.5,687C 651.175,692.623 659.842,695.289 669.5,695C 695.546,697.137 721.546,696.971 747.5,694.5C 748.614,695.723 748.781,697.056 748,698.5C 737.266,731.537 726.432,764.537 715.5,797.5C 668.713,799.61 623.047,793.443 578.5,779C 546.099,767.907 519.266,749.074 498,722.5C 457.414,669.532 440.081,609.532 446,542.5C 447.575,509.098 458.242,479.098 478,452.5C 492.937,436.44 511.104,425.607 532.5,420C 552.006,414.907 571.673,411.74 591.5,410.5 Z M 611.5,509.5 C 621.788,508.243 631.455,510.076 640.5,515C 648.879,524.614 650.712,535.447 646,547.5C 644.086,552.335 641.419,556.669 638,560.5C 618.901,581.449 597.068,598.782 572.5,612.5C 569.254,606.931 567.087,600.931 566,594.5C 561.151,576.028 561.484,557.694 567,539.5C 572.225,528.609 580.392,520.775 591.5,516C 598.119,513.293 604.786,511.126 611.5,509.5 Z"/></g>
<g><path style="opacity:0.986" fill="#034e8a" d="M 785.5,420.5 C 876.5,420.5 967.5,420.5 1058.5,420.5C 1058.5,447.5 1058.5,474.5 1058.5,501.5C 967.5,501.5 876.5,501.5 785.5,501.5C 785.5,474.5 785.5,447.5 785.5,420.5 Z"/></g>
<g><path style="opacity:0.986" fill="#034e8b" d="M 1072.5,420.5 C 1090.17,420.333 1107.84,420.5 1125.5,421C 1154.5,427.66 1174.67,444.827 1186,472.5C 1188.69,479.943 1190.36,487.609 1191,495.5C 1191.97,576.188 1191.64,656.854 1190,737.5C 1181.04,773.46 1158.54,795.626 1122.5,804C 1088.83,804.5 1055.17,804.667 1021.5,804.5C 1021.5,771.5 1021.5,738.5 1021.5,705.5C 1036.17,705.667 1050.84,705.5 1065.5,705C 1081.25,705.061 1091.08,697.561 1095,682.5C 1096.64,631.532 1096.97,580.532 1096,529.5C 1095.06,514.903 1087.56,505.903 1073.5,502.5C 1072.5,475.175 1072.17,447.841 1072.5,420.5 Z"/></g>
<g><path style="opacity:0.983" fill="#034f8b" d="M 832.5,516.5 C 846.5,516.5 860.5,516.5 874.5,516.5C 880.913,674.157 887.246,831.824 893.5,989.5C 897.833,989.5 902.167,989.5 906.5,989.5C 900.192,831.832 893.859,674.166 887.5,516.5C 928.833,516.5 970.167,516.5 1011.5,516.5C 983.627,676.689 966.96,838.022 961.5,1000.5C 934.833,1000.5 908.167,1000.5 881.5,1000.5C 878.851,892.711 870.351,785.377 856,678.5C 848.772,624.4 840.938,570.4 832.5,516.5 Z"/></g>
<g><path style="opacity:0.924" fill="#034e8b" d="M 396.5,913.5 C 399.076,914.107 401.409,915.274 403.5,917C 423.833,917.667 444.167,917.667 464.5,917C 466.344,915.818 468.177,914.651 470,913.5C 471.28,913.613 472.113,914.28 472.5,915.5C 471.063,921.735 470.23,928.068 470,934.5C 468.667,935.833 467.333,935.833 466,934.5C 465.555,929.415 463.055,925.915 458.5,924C 452.175,923.5 445.842,923.334 439.5,923.5C 439.333,944.836 439.5,966.169 440,987.5C 440.273,989.101 440.773,990.601 441.5,992C 444.424,992.988 447.424,993.654 450.5,994C 451.517,995.049 451.684,996.216 451,997.5C 438.241,997.176 425.407,997.51 412.5,998.5C 412.5,996.833 412.5,995.167 412.5,993.5C 415.91,993.543 419.243,993.043 422.5,992C 423.191,990.933 423.691,989.766 424,988.5C 424.5,966.836 424.667,945.169 424.5,923.5C 418.158,923.334 411.825,923.5 405.5,924C 401.447,926.387 398.447,929.72 396.5,934C 394.359,934.884 392.693,934.384 391.5,932.5C 393.638,926.283 395.304,919.949 396.5,913.5 Z"/></g>
<g><path style="opacity:0.924" fill="#034e8b" d="M 755.5,913.5 C 758.076,914.107 760.409,915.274 762.5,917C 782.833,917.667 803.167,917.667 823.5,917C 825.344,915.818 827.177,914.651 829,913.5C 830.28,913.613 831.113,914.28 831.5,915.5C 830.063,921.735 829.23,928.068 829,934.5C 827.667,935.833 826.333,935.833 825,934.5C 824.555,929.415 822.055,925.915 817.5,924C 811.175,923.5 804.842,923.334 798.5,923.5C 798.333,944.836 798.5,966.169 799,987.5C 799.273,989.101 799.773,990.601 800.5,992C 803.424,992.988 806.424,993.654 809.5,994C 810.517,995.049 810.684,996.216 810,997.5C 797.241,997.176 784.407,997.51 771.5,998.5C 771.5,996.833 771.5,995.167 771.5,993.5C 774.91,993.543 778.243,993.043 781.5,992C 782.191,990.933 782.691,989.766 783,988.5C 783.5,966.836 783.667,945.169 783.5,923.5C 777.158,923.334 770.825,923.5 764.5,924C 760.359,926.266 757.359,929.599 755.5,934C 753.359,934.884 751.693,934.384 750.5,932.5C 752.638,926.283 754.304,919.949 755.5,913.5 Z"/></g>
<g><path style="opacity:0.923" fill="#034f8b" d="M 1605.5,913.5 C 1608.08,914.107 1610.41,915.274 1612.5,917C 1632.83,917.667 1653.17,917.667 1673.5,917C 1675.12,916.385 1676.45,915.385 1677.5,914C 1678.78,913.316 1679.95,913.483 1681,914.5C 1680.34,921.106 1679.68,927.773 1679,934.5C 1677.67,935.833 1676.33,935.833 1675,934.5C 1673.48,925.132 1667.98,921.466 1658.5,923.5C 1655.25,923.521 1652.08,923.854 1649,924.5C 1648.33,945.167 1648.33,965.833 1649,986.5C 1649.12,989.008 1650.12,991.008 1652,992.5C 1654.77,993.348 1657.6,993.681 1660.5,993.5C 1661.26,997.24 1659.76,998.907 1656,998.5C 1644.5,997.333 1633,997.333 1621.5,998.5C 1621.5,996.833 1621.5,995.167 1621.5,993.5C 1624.94,993.699 1628.27,993.199 1631.5,992C 1632.13,991.25 1632.63,990.416 1633,989.5C 1633.5,967.503 1633.67,945.503 1633.5,923.5C 1626.41,923.116 1619.41,923.616 1612.5,925C 1609.4,927.428 1607.07,930.428 1605.5,934C 1603.6,934.774 1601.93,934.44 1600.5,933C 1602.87,926.696 1604.53,920.196 1605.5,913.5 Z"/></g>
<g><path style="opacity:0.928" fill="#034f8b" d="M 280.5,915.5 C 282.911,915.137 284.411,916.137 285,918.5C 292.958,943.211 301.791,967.544 311.5,991.5C 313.795,992.432 316.129,993.265 318.5,994C 320.166,997.131 319.166,998.631 315.5,998.5C 307.336,997.185 299.169,997.185 291,998.5C 287.241,998.907 285.741,997.24 286.5,993.5C 289.641,994.092 291.974,993.092 293.5,990.5C 291.494,983.316 288.994,976.316 286,969.5C 278.587,968.519 271.087,968.186 263.5,968.5C 260.763,976.377 258.43,984.377 256.5,992.5C 259.127,993.092 261.794,993.425 264.5,993.5C 264.714,995.144 264.38,996.644 263.5,998C 254.835,997.213 246.168,997.38 237.5,998.5C 237.5,996.833 237.5,995.167 237.5,993.5C 240.85,993.494 243.85,992.494 246.5,990.5C 256.224,967.825 265.057,944.825 273,921.5C 276.209,920.321 278.709,918.321 280.5,915.5 Z M 274.5,937.5 C 278.557,944.975 281.557,952.975 283.5,961.5C 277.794,961.829 272.128,961.495 266.5,960.5C 269.46,952.919 272.126,945.252 274.5,937.5 Z"/></g>
<g><path style="opacity:0.933" fill="#034f8b" d="M 1044.5,915.5 C 1078.01,913.511 1094.84,929.178 1095,962.5C 1088.75,990.562 1071.25,1002.73 1042.5,999C 1018.07,992.564 1006.9,976.731 1009,951.5C 1013.01,931.654 1024.85,919.654 1044.5,915.5 Z M 1044.5,921.5 C 1061.68,920.495 1072.18,928.495 1076,945.5C 1078.45,957.361 1077.78,969.028 1074,980.5C 1068.07,991.544 1058.91,995.711 1046.5,993C 1036.74,988.566 1030.58,981.066 1028,970.5C 1024.83,958.326 1025.5,946.326 1030,934.5C 1033.37,928.42 1038.2,924.087 1044.5,921.5 Z"/></g>
<g><path style="opacity:0.921" fill="#034f8b" d="M 1494.5,915.5 C 1505.97,915.1 1517.3,916.1 1528.5,918.5C 1528.67,925.51 1529,932.51 1529.5,939.5C 1527.86,939.714 1526.36,939.38 1525,938.5C 1522.81,929.64 1517.31,924.14 1508.5,922C 1490.23,919.544 1478.39,927.044 1473,944.5C 1468.65,962.117 1473.15,976.95 1486.5,989C 1504.5,998.545 1518.17,994.378 1527.5,976.5C 1529.55,975.096 1531.21,975.429 1532.5,977.5C 1531.57,983.45 1529.74,989.116 1527,994.5C 1524.15,996.345 1520.98,997.511 1517.5,998C 1501.4,1001.5 1486.06,999.499 1471.5,992C 1455.81,979.78 1450.64,963.946 1456,944.5C 1460.47,932.026 1468.97,923.526 1481.5,919C 1485.92,917.648 1490.25,916.481 1494.5,915.5 Z"/></g>
<g><path style="opacity:0.927" fill="#034f8b" d="M 1573.5,915.5 C 1575.12,915.36 1576.29,916.027 1577,917.5C 1585,940.833 1593,964.167 1601,987.5C 1603.12,991.825 1606.62,993.825 1611.5,993.5C 1611.5,995.167 1611.5,996.833 1611.5,998.5C 1600.83,997.335 1590.16,997.168 1579.5,998C 1578.48,996.951 1578.32,995.784 1579,994.5C 1580.78,993.76 1582.62,993.093 1584.5,992.5C 1584.83,991.667 1585.17,990.833 1585.5,990C 1583.27,983.143 1580.94,976.309 1578.5,969.5C 1570.94,968.187 1563.44,968.187 1556,969.5C 1552.74,976.909 1550.58,984.409 1549.5,992C 1551.74,992.977 1554.07,993.477 1556.5,993.5C 1556.5,995.167 1556.5,996.833 1556.5,998.5C 1548.66,997.322 1540.83,997.322 1533,998.5C 1530,998.257 1528.83,996.59 1529.5,993.5C 1535.26,994.202 1539.1,991.869 1541,986.5C 1550.02,964.796 1558.19,942.796 1565.5,920.5C 1568.68,919.66 1571.34,917.993 1573.5,915.5 Z M 1567.5,937.5 C 1570.38,945.29 1573.38,953.123 1576.5,961C 1570.5,961.667 1564.5,961.667 1558.5,961C 1561.21,953.037 1564.21,945.204 1567.5,937.5 Z"/></g>
<g><path style="opacity:0.936" fill="#034f8b" d="M 1765.5,915.5 C 1799.99,913.821 1816.82,930.155 1816,964.5C 1812.62,983.546 1801.45,995.046 1782.5,999C 1747.93,1002.42 1730.43,986.923 1730,952.5C 1733.56,932.105 1745.4,919.771 1765.5,915.5 Z M 1766.5,921.5 C 1778.18,920.09 1787.01,924.424 1793,934.5C 1799.09,948.789 1800.09,963.455 1796,978.5C 1788.4,993.877 1776.9,997.71 1761.5,990C 1751.57,980.546 1746.9,968.879 1747.5,955C 1746.3,939.191 1752.64,928.024 1766.5,921.5 Z"/></g>
<g><path style="opacity:0.928" fill="#034f8b" d="M 656.5,916.5 C 664.529,917.662 672.529,917.828 680.5,917C 684.613,923.447 689.113,929.614 694,935.5C 706.035,947.866 717.701,960.533 729,973.5C 729.784,958.474 729.45,943.474 728,928.5C 726.76,923.006 723.26,920.673 717.5,921.5C 717.116,919.335 717.783,917.668 719.5,916.5C 727.833,917.833 736.167,917.833 744.5,916.5C 746.217,917.668 746.884,919.335 746.5,921.5C 739.934,920.899 736.768,923.899 737,930.5C 736.833,953.507 736.333,976.507 735.5,999.5C 734.707,999.931 733.873,1000.26 733,1000.5C 714.033,979.86 695.366,958.86 677,937.5C 675.963,943.446 675.463,949.446 675.5,955.5C 675.852,965.84 676.352,976.174 677,986.5C 678.182,991.985 681.682,994.319 687.5,993.5C 687.5,995.167 687.5,996.833 687.5,998.5C 677.923,997.513 668.423,997.179 659,997.5C 658.333,996.5 658.333,995.5 659,994.5C 661.071,993.475 663.238,992.642 665.5,992C 667.004,990.509 667.837,988.676 668,986.5C 668.667,967.167 668.667,947.833 668,928.5C 665.213,924.1 661.213,921.434 656,920.5C 655.805,919.181 655.972,917.847 656.5,916.5 Z"/></g>
<g><path style="opacity:0.92" fill="#034f8b" d="M 1363.5,916.5 C 1374.17,917.81 1384.83,917.81 1395.5,916.5C 1397.22,917.668 1397.88,919.335 1397.5,921.5C 1394.73,921.421 1392.06,921.921 1389.5,923C 1388.77,924.399 1388.27,925.899 1388,927.5C 1387.33,941.833 1387.33,956.167 1388,970.5C 1391.05,989.943 1401.88,996.443 1420.5,990C 1425.86,985.781 1429.03,980.281 1430,973.5C 1430.67,958.833 1430.67,944.167 1430,929.5C 1429.07,923.607 1425.57,920.94 1419.5,921.5C 1419.12,919.335 1419.78,917.668 1421.5,916.5C 1429.83,917.833 1438.17,917.833 1446.5,916.5C 1448.22,917.668 1448.88,919.335 1448.5,921.5C 1443.02,920.908 1439.86,923.242 1439,928.5C 1438.67,941.833 1438.33,955.167 1438,968.5C 1436.67,989.169 1425.67,999.502 1405,999.5C 1386.48,1000.94 1375.82,992.602 1373,974.5C 1372.67,958.5 1372.33,942.5 1372,926.5C 1370.6,922.726 1367.77,921.06 1363.5,921.5C 1363.5,919.833 1363.5,918.167 1363.5,916.5 Z"/></g>
<g><path style="opacity:0.932" fill="#034f8b" d="M 47.5,916.5 C 62.9713,915.625 77.3046,919.125 90.5,927C 105.845,942.577 108.345,960.077 98,979.5C 92.1093,987.718 84.276,993.218 74.5,996C 66.7794,997.869 58.9461,998.702 51,998.5C 40.1465,997.612 29.3131,997.445 18.5,998C 17.4829,996.951 17.3162,995.784 18,994.5C 20.5197,993.793 23.0197,992.96 25.5,992C 26.1258,991.25 26.6258,990.416 27,989.5C 27.6667,968.167 27.6667,946.833 27,925.5C 25.1561,923.114 22.6561,921.947 19.5,922C 18.0745,920.286 18.4078,918.953 20.5,918C 29.676,917.83 38.676,917.33 47.5,916.5 Z M 49.5,922.5 C 77.7532,923.6 89.9199,938.267 86,966.5C 81.3819,987.4 68.5486,995.566 47.5,991C 45.9512,989.786 44.7845,988.286 44,986.5C 42.4096,966.871 42.0762,947.205 43,927.5C 43.3095,926.234 43.8095,925.067 44.5,924C 46.3817,923.802 48.0484,923.302 49.5,922.5 Z"/></g>
<g><path style="opacity:0.931" fill="#034e8b" d="M 114.5,916.5 C 132.833,917.821 151.167,917.821 169.5,916.5C 171.154,922.718 172.154,929.051 172.5,935.5C 170.712,935.785 169.045,935.452 167.5,934.5C 166.614,929.528 163.948,926.028 159.5,924C 152.476,923.169 145.476,923.336 138.5,924.5C 137.527,933.78 137.193,943.113 137.5,952.5C 143.842,952.666 150.175,952.5 156.5,952C 158.438,949.53 159.604,946.696 160,943.5C 161.049,942.483 162.216,942.316 163.5,943C 164.484,951.749 164.817,960.582 164.5,969.5C 162.833,969.5 161.167,969.5 159.5,969.5C 159.986,965.431 158.653,962.264 155.5,960C 149.584,959.193 143.75,959.359 138,960.5C 137.333,967.833 137.333,975.167 138,982.5C 138.29,984.952 138.956,987.285 140,989.5C 149.516,993.567 159.016,993.401 168.5,989C 171.407,985.44 174.241,981.94 177,978.5C 178.885,978.862 179.719,980.029 179.5,982C 178.43,987.541 176.764,992.874 174.5,998C 153.463,997.513 132.463,997.346 111.5,997.5C 110.167,996.5 110.167,995.5 111.5,994.5C 113.766,993.686 116.1,993.186 118.5,993C 120.333,992.5 121.5,991.333 122,989.5C 122.667,968.167 122.667,946.833 122,925.5C 120.188,922.179 117.355,920.845 113.5,921.5C 113.366,919.708 113.699,918.042 114.5,916.5 Z"/></g>
<g><path style="opacity:0.935" fill="#034e8b" d="M 207.5,916.5 C 217.888,916.363 227.888,918.196 237.5,922C 249.842,933.362 250.508,945.362 239.5,958C 232.201,962.609 224.201,964.776 215.5,964.5C 215.286,962.856 215.62,961.356 216.5,960C 227.867,955.776 232.367,947.609 230,935.5C 226.649,925.411 219.815,921.411 209.5,923.5C 208.334,945.826 208.167,968.159 209,990.5C 211.984,993.1 215.484,994.1 219.5,993.5C 219.5,995.167 219.5,996.833 219.5,998.5C 207.589,997.542 195.755,997.209 184,997.5C 183.316,996.216 183.483,995.049 184.5,994C 187.656,994.053 190.156,992.886 192,990.5C 193.975,968.507 193.975,946.507 192,924.5C 189.379,923.009 186.545,922.342 183.5,922.5C 183.286,920.856 183.62,919.356 184.5,918C 192.344,917.829 200.011,917.329 207.5,916.5 Z"/></g>
<g><path style="opacity:0.937" fill="#034e8b" d="M 348.5,916.5 C 357.402,916.686 366.069,918.186 374.5,921C 383.535,926.757 386.702,934.924 384,945.5C 381.416,952.382 376.583,956.882 369.5,959C 375.293,968.756 381.46,978.256 388,987.5C 391.355,991.37 395.521,993.703 400.5,994.5C 400.5,995.833 400.5,997.167 400.5,998.5C 386.139,1001.11 374.972,996.444 367,984.5C 362.875,977.081 358.375,969.914 353.5,963C 351.19,962.503 348.857,962.337 346.5,962.5C 346.334,971.506 346.5,980.506 347,989.5C 348.849,992.677 351.682,994.177 355.5,994C 356.517,995.049 356.684,996.216 356,997.5C 344.575,997.177 333.075,997.511 321.5,998.5C 321.5,996.833 321.5,995.167 321.5,993.5C 324.914,993.927 327.748,992.927 330,990.5C 331.108,979.38 331.608,968.213 331.5,957C 331.62,946.111 331.12,935.278 330,924.5C 327.734,923.044 325.234,922.21 322.5,922C 321.075,920.286 321.408,918.953 323.5,918C 332.01,917.829 340.343,917.329 348.5,916.5 Z M 348.5,922.5 C 364.913,923.759 371.079,932.426 367,948.5C 365.01,952.49 361.843,954.99 357.5,956C 353.848,956.499 350.182,956.665 346.5,956.5C 345.889,944.913 346.556,933.58 348.5,922.5 Z"/></g>
<g><path style="opacity:0.927" fill="#034f8b" d="M 478.5,916.5 C 486.697,917.791 494.864,917.791 503,916.5C 510.024,936.549 518.69,955.882 529,974.5C 538.819,955.863 547.819,936.863 556,917.5C 563.346,917.792 570.846,917.459 578.5,916.5C 580.217,917.668 580.884,919.335 580.5,921.5C 575.848,920.984 572.348,922.651 570,926.5C 569.342,947.181 569.675,967.847 571,988.5C 571.309,989.766 571.809,990.933 572.5,992C 574.788,992.822 577.122,993.489 579.5,994C 580.517,995.049 580.684,996.216 580,997.5C 570.239,997.295 560.406,997.628 550.5,998.5C 547.089,998.597 545.755,996.93 546.5,993.5C 549.862,993.93 552.695,992.93 555,990.5C 555.667,972.833 555.667,955.167 555,937.5C 545.041,958.417 534.874,979.084 524.5,999.5C 522.803,998.636 521.637,997.303 521,995.5C 512.865,975.9 504.199,956.566 495,937.5C 494.353,954.172 494.019,970.838 494,987.5C 495.471,991.958 498.638,993.958 503.5,993.5C 503.5,995.167 503.5,996.833 503.5,998.5C 495.328,997.312 487.162,997.312 479,998.5C 475.997,998.257 474.83,996.59 475.5,993.5C 480.423,994.129 483.589,992.129 485,987.5C 486.683,970.539 487.85,953.539 488.5,936.5C 490.856,926.833 487.189,921.833 477.5,921.5C 477.366,919.708 477.699,918.042 478.5,916.5 Z"/></g>
<g><path style="opacity:0.92" fill="#034e8b" d="M 590.5,916.5 C 608.833,917.821 627.167,917.821 645.5,916.5C 646.719,922.141 647.719,927.807 648.5,933.5C 647.307,935.384 645.641,935.884 643.5,935C 642.675,929.512 639.675,925.845 634.5,924C 627.586,923.189 620.752,923.355 614,924.5C 613.5,933.827 613.334,943.161 613.5,952.5C 619.509,952.666 625.509,952.499 631.5,952C 632.416,951.626 633.25,951.126 634,950.5C 634.511,948.122 635.178,945.788 636,943.5C 637.049,942.483 638.216,942.316 639.5,943C 640.484,951.749 640.817,960.582 640.5,969.5C 638.833,969.5 637.167,969.5 635.5,969.5C 635.322,966.784 634.822,964.117 634,961.5C 633.25,960.874 632.416,960.374 631.5,960C 625.509,959.501 619.509,959.334 613.5,959.5C 613.08,969.247 613.58,978.914 615,988.5C 615.903,989.701 617.069,990.535 618.5,991C 622.039,991.282 625.539,991.782 629,992.5C 639.614,993.598 646.781,989.265 650.5,979.5C 653.145,977.906 654.812,978.573 655.5,981.5C 654.45,987.037 652.783,992.371 650.5,997.5C 629.292,997.505 608.125,997.505 587,997.5C 586.316,996.216 586.483,995.049 587.5,994C 590.576,993.654 593.576,992.988 596.5,992C 597.191,990.933 597.691,989.766 598,988.5C 598.667,967.833 598.667,947.167 598,926.5C 596.601,922.726 593.768,921.06 589.5,921.5C 589.366,919.708 589.699,918.042 590.5,916.5 Z"/></g>
<g><path style="opacity:0.946" fill="#034f8b" d="M 1105.5,916.5 C 1123.83,917.821 1142.17,917.821 1160.5,916.5C 1161.66,922.807 1161.83,929.141 1161,935.5C 1159.67,936.833 1158.33,936.833 1157,935.5C 1156.87,930.085 1154.37,926.251 1149.5,924C 1142.81,923.169 1136.14,923.336 1129.5,924.5C 1128.53,934.113 1128.19,943.78 1128.5,953.5C 1135.17,953.666 1141.84,953.5 1148.5,953C 1150.81,950.64 1152.31,947.806 1153,944.5C 1154.11,943.289 1155.28,943.289 1156.5,944.5C 1156.22,952.708 1156.55,961.041 1157.5,969.5C 1155.83,970.833 1154.17,970.833 1152.5,969.5C 1151.81,967.556 1151.31,965.556 1151,963.5C 1150.1,962.299 1148.93,961.465 1147.5,961C 1141.5,960.333 1135.5,960.333 1129.5,961C 1128.12,970.809 1128.29,980.642 1130,990.5C 1133.07,992.771 1136.57,993.937 1140.5,994C 1141.52,995.049 1141.68,996.216 1141,997.5C 1128.66,997.56 1116.33,997.56 1104,997.5C 1103.32,996.216 1103.48,995.049 1104.5,994C 1108.32,994.177 1111.15,992.677 1113,989.5C 1113.67,968.167 1113.67,946.833 1113,925.5C 1111.17,922.581 1108.51,920.915 1105,920.5C 1104.42,919.072 1104.59,917.738 1105.5,916.5 Z"/></g>
<g><path style="opacity:0.94" fill="#034f8b" d="M 1199.5,916.5 C 1217.83,917.821 1236.17,917.821 1254.5,916.5C 1256.44,922.634 1257.44,928.968 1257.5,935.5C 1255.83,935.5 1254.17,935.5 1252.5,935.5C 1252.27,931.306 1250.6,927.806 1247.5,925C 1239.59,923.599 1231.59,923.099 1223.5,923.5C 1223.5,933.167 1223.5,942.833 1223.5,952.5C 1229.51,952.666 1235.51,952.499 1241.5,952C 1243.63,949.567 1244.96,946.734 1245.5,943.5C 1246.45,942.674 1247.45,942.508 1248.5,943C 1249.48,951.749 1249.82,960.582 1249.5,969.5C 1247.86,969.714 1246.36,969.38 1245,968.5C 1244.94,965.178 1243.77,962.344 1241.5,960C 1235.51,959.501 1229.51,959.334 1223.5,959.5C 1223.33,968.839 1223.5,978.173 1224,987.5C 1224.5,989.333 1225.67,990.5 1227.5,991C 1235.59,993.085 1243.59,992.752 1251.5,990C 1255.91,987.516 1258.91,983.849 1260.5,979C 1261.79,978.51 1263.13,978.343 1264.5,978.5C 1264.48,985.433 1262.81,991.933 1259.5,998C 1238.5,997.181 1217.5,997.348 1196.5,998.5C 1196.5,996.833 1196.5,995.167 1196.5,993.5C 1206.08,994.417 1209.91,990.084 1208,980.5C 1208.84,961.809 1208.5,943.142 1207,924.5C 1204.7,922.426 1202.03,921.092 1199,920.5C 1198.42,919.072 1198.59,917.738 1199.5,916.5 Z"/></g>
<g><path style="opacity:0.936" fill="#034f8b" d="M 1298.5,916.5 C 1311.75,916.117 1324.42,918.617 1336.5,924C 1353.26,936.279 1358.42,952.446 1352,972.5C 1344.28,988.532 1331.44,997.032 1313.5,998C 1298.48,997.965 1283.48,998.132 1268.5,998.5C 1268.5,996.833 1268.5,995.167 1268.5,993.5C 1271.55,993.658 1274.38,992.991 1277,991.5C 1278.12,980.221 1278.62,968.888 1278.5,957.5C 1278.33,947.5 1278.17,937.5 1278,927.5C 1276.72,923.436 1273.89,921.769 1269.5,922.5C 1269.23,920.549 1269.89,919.049 1271.5,918C 1280.68,917.83 1289.68,917.33 1298.5,916.5 Z M 1299.5,922.5 C 1323.7,921.707 1336.37,933.373 1337.5,957.5C 1337.09,982.086 1324.75,993.586 1300.5,992C 1296.59,991.027 1294.43,988.527 1294,984.5C 1293.17,964.492 1293.33,944.492 1294.5,924.5C 1296.34,923.972 1298,923.306 1299.5,922.5 Z"/></g>
<g><path style="opacity:0.937" fill="#034f8b" d="M 1686.5,916.5 C 1697.5,917.811 1708.5,917.811 1719.5,916.5C 1721.6,917.62 1721.93,919.12 1720.5,921C 1718.12,921.511 1715.79,922.178 1713.5,923C 1712.87,923.75 1712.37,924.584 1712,925.5C 1711.33,946.833 1711.33,968.167 1712,989.5C 1713.85,992.677 1716.68,994.177 1720.5,994C 1721.52,995.049 1721.68,996.216 1721,997.5C 1709.58,997.177 1698.08,997.511 1686.5,998.5C 1686.5,996.833 1686.5,995.167 1686.5,993.5C 1689.91,993.927 1692.75,992.927 1695,990.5C 1697,968.5 1697,946.5 1695,924.5C 1692.7,922.07 1689.86,921.07 1686.5,921.5C 1686.5,919.833 1686.5,918.167 1686.5,916.5 Z"/></g>
<g><path style="opacity:0.917" fill="#034e8b" d="M 1823.5,916.5 C 1831,917.817 1838.5,917.817 1846,916.5C 1850.62,923.45 1855.62,930.116 1861,936.5C 1872.7,948.533 1884.03,960.867 1895,973.5C 1895.86,958.134 1895.53,942.801 1894,927.5C 1892.21,922.823 1888.71,920.823 1883.5,921.5C 1883.12,919.335 1883.78,917.668 1885.5,916.5C 1894.17,917.833 1902.83,917.833 1911.5,916.5C 1912.45,918.045 1912.79,919.712 1912.5,921.5C 1909.02,921.597 1906.19,922.931 1904,925.5C 1902.9,950.143 1902.07,974.809 1901.5,999.5C 1900.71,999.931 1899.87,1000.26 1899,1000.5C 1880.03,979.86 1861.37,958.86 1843,937.5C 1842.33,953.5 1842.33,969.5 1843,985.5C 1843.61,991.783 1847.11,994.45 1853.5,993.5C 1853.5,995.167 1853.5,996.833 1853.5,998.5C 1843.92,997.513 1834.42,997.179 1825,997.5C 1824.33,996.5 1824.33,995.5 1825,994.5C 1827.07,993.475 1829.24,992.642 1831.5,992C 1832.89,990.829 1833.73,989.329 1834,987.5C 1834.67,967.833 1834.67,948.167 1834,928.5C 1831.52,924.009 1827.69,921.676 1822.5,921.5C 1822.37,919.708 1822.7,918.042 1823.5,916.5 Z"/></g>
<g><path style="opacity:0.978" fill="#024e8a" d="M 961.5,1019.5 C 934.833,1019.5 908.167,1019.5 881.5,1019.5C 881.5,1016.17 881.5,1012.83 881.5,1009.5C 908.167,1009.5 934.833,1009.5 961.5,1009.5C 961.5,1012.83 961.5,1016.17 961.5,1019.5 Z"/></g>
</svg>
